<svg width="24" height="24" viewBox="0 0 24 24" fill="none" xmlns="http://www.w3.org/2000/svg">
  <g clip-path="url(#clip0_2245_3496)">
    <path d="M4.92154 23.9401C4.63422 23.8342 4.55185 23.4359 4.76973 23.206L4.894 23.0748L5.81949 23.0603L6.74498 23.0457L6.77002 22.7331C6.8042 22.3065 6.97215 21.9743 7.28101 21.7225C7.65236 21.4197 7.87009 21.369 8.80011 21.369C9.35235 21.369 9.59796 21.3525 9.62455 21.3134C9.64538 21.2829 9.79398 20.7571 9.95477 20.1451L10.2471 19.0323L6.22236 19.0319C3.71786 19.0318 2.07107 19.0134 1.86263 18.9835C0.936793 18.8506 0.244887 18.214 0.112487 17.3732C0.0439554 16.938 0.0424784 5.24479 0.110928 4.81578C0.214322 4.16749 0.640999 3.63789 1.28159 3.36272L1.63075 3.21274L8.87553 3.20043L16.1203 3.18811L17.0299 1.95412C17.6337 1.13492 18.0134 0.665716 18.1594 0.558247C19.3454 -0.314597 21.0246 0.0220669 21.6656 1.26119C21.805 1.53078 21.8318 1.64207 21.8487 2.02102C21.865 2.38792 21.8492 2.51368 21.7577 2.7454C21.6968 2.89963 21.6346 3.05981 21.6194 3.10137C21.596 3.16559 21.6529 3.18013 21.9994 3.19832C23.0054 3.25114 23.7877 3.91935 23.9193 4.83837C23.9862 5.30499 23.9843 16.9478 23.9173 17.3732C23.7849 18.214 23.093 18.8507 22.1671 18.9835C21.9587 19.0134 20.3119 19.0317 17.8074 19.032L13.7826 19.0323L14.075 20.1451C14.2358 20.7571 14.3844 21.2829 14.4052 21.3134C14.4318 21.3525 14.6774 21.369 15.2296 21.369C16.1597 21.369 16.3774 21.4197 16.7487 21.7225C17.0576 21.9743 17.2255 22.3065 17.2597 22.7331L17.2848 23.0457L18.2103 23.0603L19.1358 23.0748L19.26 23.206C19.4286 23.3839 19.4285 23.6539 19.2599 23.8317L19.1355 23.9628L12.0838 23.9718C8.1751 23.9767 4.98275 23.9626 4.92154 23.9401ZM16.2399 22.8528C16.2389 22.5885 16.1482 22.4378 15.9307 22.3388C15.7647 22.2633 15.4691 22.2571 12.0149 22.2571C8.56067 22.2571 8.26507 22.2633 8.09898 22.3388C7.88149 22.4378 7.79083 22.5885 7.78982 22.8528L7.78904 23.0515H12.0148H16.2406L16.2399 22.8528ZM13.3032 21.2966C13.3032 21.2567 13.1757 20.7388 13.0198 20.1456C12.8639 19.5524 12.7363 19.0592 12.7363 19.0497C12.7363 19.0401 12.4117 19.0323 12.0149 19.0323C11.618 19.0323 11.2934 19.0401 11.2934 19.0497C11.2934 19.0592 11.1658 19.5524 11.0099 20.1456C10.8541 20.7388 10.7265 21.2567 10.7265 21.2966C10.7265 21.3601 10.8854 21.369 12.0149 21.369C13.1444 21.369 13.3032 21.3601 13.3032 21.2966ZM22.3711 17.9574C22.518 17.8827 22.6574 17.7577 22.7576 17.6107L22.9143 17.3808V16.1619V14.9431L14.6832 14.9197L6.45202 14.8963L6.33465 14.7899C6.24833 14.7116 6.21726 14.6294 6.21726 14.4793C6.21726 14.2346 6.33274 14.0992 6.59861 14.0323C6.71865 14.002 9.63555 13.9854 14.8621 13.9853L22.9401 13.9851L22.9389 9.51028C22.9384 7.04914 22.9172 4.95553 22.8922 4.85782C22.8331 4.62682 22.6597 4.40088 22.4335 4.26014C22.2644 4.15491 22.2014 4.14678 21.4754 4.13628L20.6984 4.12505L18.3794 6.7008C16.3135 8.99541 16.0618 9.29249 16.0739 9.42263C16.1536 10.2813 16.146 10.6251 16.0406 10.9398C15.7999 11.6585 15.1927 12.2122 14.4113 12.4255C14.1549 12.4955 13.904 12.5105 12.9425 12.5135C11.5329 12.5178 11.4914 12.5275 10.7318 13.0284C10.3727 13.2653 10.0099 13.1292 9.87917 12.7085C9.74892 12.2894 9.65085 11.7841 9.58998 11.2187C9.35339 9.02066 10.5428 7.5473 12.7012 7.36456L13.0526 7.33481L14.1442 5.86113C14.7446 5.05061 15.2788 4.32798 15.3314 4.25529L15.427 4.12314L8.60178 4.13533L1.77656 4.14751L1.57104 4.27667C1.45801 4.34771 1.30926 4.49493 1.24048 4.60381L1.11544 4.80179L1.10134 9.39344L1.08724 13.9851L1.79705 13.9853C2.57125 13.9856 2.82605 14.027 2.97583 14.1771C3.11927 14.3208 3.10885 14.6515 2.95653 14.7899C2.84629 14.89 2.78805 14.8977 1.97738 14.9197L1.11544 14.9431V16.1581V17.3732L1.25671 17.5912C1.39767 17.8086 1.63524 17.978 1.90206 18.0513C1.97961 18.0726 6.56518 18.0865 12.0922 18.0822L22.1414 18.0742L22.3711 17.9574ZM4.37492 14.8692C4.22493 14.79 4.11739 14.552 4.15325 14.3786C4.2214 14.0492 4.69757 13.9161 4.99045 14.1445C5.11052 14.2382 5.13505 14.2944 5.13505 14.4757C5.13505 14.6571 5.11052 14.7133 4.99045 14.8069C4.83593 14.9274 4.54156 14.9572 4.37492 14.8692ZM10.9943 11.7946C11.438 11.6221 11.7563 11.5865 12.9167 11.5798C14.2431 11.5721 14.3428 11.5489 14.7381 11.1567C15.0272 10.8698 15.1356 10.5964 15.1268 10.1762C15.1148 9.60073 15.1081 9.59273 14.0732 8.90265C13.0347 8.21022 13.0445 8.21341 12.3847 8.35448C11.8921 8.45979 11.5422 8.63068 11.2547 8.90642C10.8403 9.30372 10.6647 9.70998 10.5948 10.4332C10.5558 10.837 10.6688 11.882 10.7515 11.882C10.7614 11.882 10.8707 11.8426 10.9943 11.7946ZM15.8589 8.02639C16.1127 7.74364 16.3504 7.47687 16.3871 7.43355C16.4463 7.3637 16.3758 7.30161 15.7631 6.88442C15.3831 6.62572 15.0489 6.41405 15.0203 6.41405C14.9709 6.41405 14.0911 7.57487 14.0636 7.67631C14.0472 7.73682 15.328 8.61703 15.3681 8.5728C15.3842 8.55501 15.6051 8.30913 15.8589 8.02639ZM18.8668 4.70148C19.8119 3.65675 20.642 2.70964 20.7116 2.59679C20.8618 2.35306 20.8849 1.95001 20.7636 1.69049C20.4722 1.06743 19.639 0.813187 19.0005 1.15253C18.7984 1.25991 18.585 1.52584 17.1968 3.40016C16.3308 4.56938 15.6165 5.54533 15.6094 5.56893C15.5954 5.61531 17.0039 6.59078 17.0939 6.59714C17.1239 6.59926 17.9217 5.74621 18.8668 4.70148Z" fill="black" />
  </g>
  <defs>
    <clipPath id="clip0_2245_3496">
      <rect width="24" height="24" fill="white" />
    </clipPath>
  </defs>
</svg>