<svg width="24" height="24" viewBox="0 0 24 24" fill="none" xmlns="http://www.w3.org/2000/svg">
  <path d="M7.13007 23.8023C6.95239 23.3517 7.17554 23.22 8.11687 23.22H9.02798L9.29586 22.091C9.4432 21.47 9.53873 20.9184 9.50816 20.8652C9.47759 20.8119 7.53015 20.7684 5.18051 20.7684C0.527424 20.7684 0.515227 20.7664 0.201169 20.0288C0.0888207 19.7648 0.0567402 17.8654 0.0834476 13.0587L0.120165 6.45152L0.487338 6.09383C0.808736 5.78073 0.982322 5.72809 1.87961 5.67162L2.90469 5.60711L2.97099 2.83292L3.03729 0.0587158H11.9876H20.9378L21.0041 2.83292L21.0704 5.60711L22.0955 5.67162C22.9928 5.72809 23.1664 5.78073 23.4878 6.09383L23.855 6.45152L23.8917 13.0587C23.9184 17.8654 23.8863 19.7648 23.774 20.0288C23.4603 20.7656 23.4417 20.7684 18.8609 20.7684C16.5478 20.7684 14.6278 20.8119 14.5943 20.8652C14.5608 20.9184 14.6261 21.4676 14.7394 22.0857L14.9455 23.2095L15.8864 23.247C16.7914 23.2831 16.8274 23.2968 16.8274 23.6071V23.9297L12.0172 23.9636C7.82465 23.9931 7.19715 23.9724 7.13007 23.8023ZM14.0531 22.6613C14.0058 22.3541 13.8946 21.817 13.806 21.4678L13.645 20.8329L12.0939 20.7966C10.7182 20.7644 10.5288 20.7863 10.4192 20.9902C10.3142 21.1853 9.86602 22.9344 9.86602 23.1487C9.86602 23.1879 10.8275 23.22 12.0026 23.22H14.1392L14.0531 22.6613ZM22.9666 19.8394C23.0631 19.7454 23.1257 19.2888 23.1257 18.6781V17.6716H11.9876H0.849442V18.6781C0.849442 19.2888 0.912003 19.7454 1.00856 19.8394C1.23904 20.0636 22.7361 20.0636 22.9666 19.8394ZM15.7512 19.0339C15.5868 18.617 15.8019 18.4289 16.3952 18.4706C16.8983 18.506 16.9599 18.5455 16.9599 18.8329C16.9599 19.1203 16.8983 19.1598 16.3952 19.1952C15.9794 19.2245 15.8095 19.182 15.7512 19.0339ZM18.0428 19.134C17.8789 18.9745 17.9528 18.6031 18.1642 18.5241C18.8048 18.2849 19.5371 18.5901 19.3657 19.0248C19.2869 19.2246 18.2259 19.3121 18.0428 19.134ZM20.2893 19.0165C20.1463 18.6539 20.4637 18.4292 21.059 18.4717C21.538 18.5058 21.6008 18.5478 21.6008 18.8329C21.6008 19.1249 21.5427 19.1592 20.9877 19.1942C20.512 19.2241 20.3555 19.1843 20.2893 19.0165ZM23.1257 11.8898C23.1257 8.03355 23.0868 6.83047 22.9565 6.65711C22.8197 6.47503 22.6233 6.43948 21.9289 6.47116L21.0704 6.51032L21.0041 10.2523L20.9378 13.9942H11.9876H3.03729L2.97099 10.2523L2.90469 6.51032L2.04623 6.47116C1.35186 6.43946 1.15542 6.47506 1.0186 6.65711C0.888335 6.83047 0.849442 8.03355 0.849442 11.8898V16.8974H11.9876H23.1257V11.8898ZM20.2086 7.02646V0.768397H11.9876H3.76657V7.02646V13.2845H11.9876H20.2086V7.02646ZM5.00834 11.6728C4.96612 11.5657 4.96612 11.3905 5.00834 11.2834C5.07567 11.1126 5.93823 11.0928 12.017 11.1221L18.9489 11.1555V11.4781V11.8006L12.017 11.8341C5.93823 11.8634 5.07567 11.8435 5.00834 11.6728ZM5.0084 9.60841C4.96614 9.50124 4.96614 9.32587 5.0084 9.2187C5.07565 9.04817 5.84266 9.02804 11.1552 9.05741L17.2251 9.09096V9.41355V9.73613L11.1552 9.76968C5.84266 9.79904 5.07565 9.77897 5.0084 9.60841ZM5.00848 7.54409C4.96618 7.43682 4.96618 7.26127 5.00848 7.15399C5.07562 6.98373 5.74714 6.96324 10.2934 6.99271L15.5014 7.02645V7.34903V7.67162L10.2934 7.70536C5.74714 7.73482 5.07562 7.71436 5.00848 7.54409ZM11.1101 5.74318C10.9994 5.4624 12.1736 2.26041 12.4021 2.22017C12.5023 2.20251 12.6738 2.2445 12.7831 2.31344C12.954 2.42113 12.8959 2.68041 12.3712 4.15199C11.8632 5.57666 11.7124 5.87212 11.4756 5.90648C11.3079 5.93081 11.1576 5.86361 11.1101 5.74318ZM8.71071 4.9502C8.32514 4.55342 8.00966 4.15967 8.00966 4.07519C8.00966 3.99072 8.36452 3.5799 8.79823 3.16225C9.47121 2.51419 9.61697 2.42726 9.7927 2.56918C10.0985 2.81617 10.0481 2.99366 9.53452 3.47807C9.27928 3.71882 9.07044 3.98011 9.07044 4.05872C9.07044 4.13733 9.27928 4.39862 9.53452 4.63936C10.0319 5.1085 10.1275 5.46686 9.78887 5.5933C9.45907 5.71645 9.45017 5.71114 8.71071 4.9502ZM14.1423 5.58617C13.8458 5.46976 13.9666 5.08643 14.4406 4.63936C14.6959 4.39862 14.9047 4.13733 14.9047 4.05872C14.9047 3.98011 14.6959 3.71882 14.4406 3.47807C13.927 2.99366 13.8766 2.81617 14.1824 2.56918C14.3581 2.42726 14.5039 2.51419 15.1769 3.16225C15.6106 3.5799 15.9655 3.99072 15.9655 4.07519C15.9655 4.26822 14.6085 5.67522 14.4357 5.66144C14.3655 5.65583 14.2334 5.62193 14.1423 5.58617Z" fill="black" />
</svg>