<svg width="25" height="25" viewBox="0 0 25 25" fill="none" xmlns="http://www.w3.org/2000/svg">
  <path d="M1.37925 24.4253C1.22274 24.378 1.0735 24.2822 0.91844 24.1296C0.525341 23.7426 0.539051 23.8894 0.539051 20.0675V16.7286L0.342802 16.0113C0.130148 15.2342 0.117355 14.9635 0.278423 14.6491C0.388161 14.4349 0.623295 14.1961 0.824833 14.0941C0.916521 14.0477 1.76315 13.8079 2.70623 13.5611C3.64931 13.3143 5.58906 12.804 7.01678 12.427C9.83791 11.6821 9.87771 11.6755 10.2914 11.8833C10.3963 11.936 10.5681 12.0751 10.6731 12.1926C10.8418 12.3812 10.8865 12.4865 11.0575 13.0971C11.164 13.4772 11.2652 13.8462 11.2825 13.9171C11.3329 14.1244 11.269 14.2762 11.0998 14.3513C11.0154 14.3888 9.2965 14.8535 7.2801 15.384C5.2637 15.9146 3.60438 16.358 3.59272 16.3695C3.58105 16.381 5.34336 16.3904 7.50896 16.3904C11.3829 16.3904 11.4479 16.392 11.5417 16.4842C11.6352 16.5762 11.6369 16.6404 11.6369 20.0304C11.6369 22.625 11.6224 23.5308 11.5784 23.6759C11.5426 23.7938 11.4269 23.9628 11.2807 24.1106C10.8708 24.525 11.1753 24.5023 6.06743 24.4986C2.25745 24.4958 1.57714 24.4852 1.37925 24.4253ZM10.7906 23.6687L10.9463 23.5155L10.9596 21.4062L10.9729 19.2969L6.10131 19.3089L1.22969 19.3208V21.3838C1.22969 23.3527 1.23394 23.4531 1.32269 23.5821C1.50941 23.8535 1.31828 23.8437 6.17044 23.8324L10.6349 23.822L10.7906 23.6687ZM4.87341 23.2359C4.78208 23.146 4.77815 23.0796 4.77815 21.6265V20.1108L4.88839 20.0089C5.02017 19.887 5.11305 19.8814 5.31636 19.9832C5.78468 20.2178 7.72022 21.341 7.79077 21.4191C7.9022 21.5426 7.89629 21.7481 7.77829 21.8532C7.57004 22.0387 5.22831 23.3297 5.10002 23.3297C5.02778 23.3297 4.9258 23.2875 4.87341 23.2359ZM6.7708 21.6643C6.82227 21.6179 6.70524 21.534 6.15849 21.2258C5.78673 21.0161 5.4741 20.8446 5.46377 20.8446C5.45343 20.8446 5.44498 21.2026 5.44498 21.64V22.4354L6.07608 22.0786C6.42318 21.8823 6.73581 21.6959 6.7708 21.6643ZM2.36088 18.3948C2.45342 18.2594 2.70329 17.9007 2.91613 17.5977L3.30313 17.0468H2.27832H1.25351V17.8439V18.641H1.72307H2.19263L2.36088 18.3948ZM5.67122 17.8722C5.96593 17.4494 6.20706 17.0907 6.20706 17.0751C6.20706 17.0596 5.73955 17.0468 5.16815 17.0468H4.12924L4.03364 17.1757C3.98107 17.2467 3.72906 17.6053 3.47363 17.9728L3.00922 18.641L4.0723 18.6409L5.13538 18.6409L5.67122 17.8722ZM8.61239 17.8843C8.90056 17.4699 9.14347 17.1119 9.1522 17.0888C9.16125 17.0649 8.71693 17.0468 8.11923 17.0468H7.07037L6.55536 17.7829C6.27211 18.1878 6.02321 18.5465 6.00227 18.58C5.97144 18.6293 6.16687 18.6407 7.02632 18.6394L8.08846 18.6378L8.61239 17.8843ZM10.9701 17.8439V17.0468H10.4978H10.0255L9.50698 17.7853C9.22181 18.1914 8.97227 18.5501 8.95243 18.5824C8.92402 18.6285 9.13426 18.641 9.94323 18.641H10.9701V17.8439ZM2.08257 16.0575C2.58276 15.9259 3.01793 15.8043 3.04961 15.7871C3.13233 15.7422 1.70527 14.5612 1.57152 14.5638C1.42007 14.5669 1.11839 14.681 1.01247 14.7753C0.827101 14.9405 0.82142 15.1244 0.982894 15.7327C1.06522 16.0428 1.1417 16.2966 1.15285 16.2966C1.16401 16.2966 1.58238 16.189 2.08257 16.0575ZM4.84682 15.3325C5.29369 15.2148 5.72887 15.0971 5.81388 15.071L5.96845 15.0235L5.24475 14.4176C4.84671 14.0843 4.48934 13.8116 4.45058 13.8116C4.38222 13.8116 2.91154 14.1887 2.59857 14.2864L2.44328 14.3349L3.16689 14.9407C3.56487 15.2738 3.92286 15.5464 3.96242 15.5464C4.00197 15.5464 4.39996 15.4501 4.84682 15.3325ZM7.79568 14.5557C8.29727 14.4234 8.72473 14.3 8.7456 14.2815C8.78706 14.2448 7.44229 13.0939 7.33034 13.0703C7.26246 13.056 5.47393 13.5109 5.3653 13.5701C5.29921 13.6062 6.70312 14.7962 6.81172 14.7962C6.85132 14.7962 7.2941 14.688 7.79568 14.5557ZM10.1003 13.9475C10.3036 13.8933 10.4856 13.8346 10.5047 13.8172C10.5509 13.7749 10.2822 12.8035 10.1831 12.6547C10.1403 12.5904 10.0271 12.5056 9.93156 12.4663C9.76458 12.3977 9.72758 12.4029 8.98628 12.5992C8.56195 12.7116 8.20779 12.8162 8.19925 12.8318C8.17557 12.875 9.58864 14.046 9.66438 14.046C9.70082 14.046 9.89699 14.0017 10.1003 13.9475ZM13.5659 24.4197C13.4012 24.3659 13.246 24.2617 13.0623 24.0819C12.6188 23.6477 12.6372 23.8015 12.6372 20.5164C12.6372 17.2315 12.6188 17.3854 13.0623 16.9506C13.5105 16.5113 13.3769 16.5261 16.7595 16.5414L19.6626 16.5545L19.9332 16.6853C20.2398 16.8335 20.4636 17.0607 20.6102 17.3726C20.7088 17.5824 20.7105 17.6358 20.7105 20.5164V23.4469L20.5776 23.7133C20.427 24.0151 20.1963 24.2353 19.8794 24.3797C19.6672 24.4763 19.6008 24.4786 16.7334 24.4879C14.1154 24.4965 13.7788 24.4892 13.5659 24.4197ZM19.6395 23.7399C19.7648 23.6774 19.8903 23.5675 19.9473 23.4703C20.0411 23.3106 20.0437 23.2314 20.0437 20.5164C20.0437 17.8015 20.0411 17.7223 19.9473 17.5626C19.8901 17.4651 19.7644 17.3551 19.6377 17.2918L19.4245 17.1851L16.6058 17.198C13.8437 17.2106 13.7846 17.2128 13.6557 17.3076C13.5834 17.3607 13.48 17.4625 13.426 17.5337C13.3298 17.6604 13.3275 17.72 13.3138 20.3909C13.3061 21.8912 13.3125 23.1877 13.3281 23.2721C13.3647 23.4709 13.6062 23.7398 13.797 23.7942C13.8795 23.8177 15.1802 23.8389 16.6875 23.8412L19.4281 23.8454L19.6395 23.7399ZM15.5513 23.0553C15.2636 22.9548 15.0098 22.7367 14.8611 22.4622C14.7267 22.2141 14.7193 21.6933 14.8466 21.4542C15.1337 20.9153 15.7 20.6643 16.2928 20.8132L16.4476 20.8521V19.5386C16.4476 18.8162 16.4672 18.1742 16.4912 18.1121C16.5152 18.05 16.599 17.973 16.6774 17.941C16.8458 17.8724 16.7728 17.8411 17.7906 18.4193C18.6339 18.8984 18.735 19.0068 18.5575 19.2418C18.3941 19.4582 18.2262 19.4349 17.6657 19.1183L17.1718 18.8394L17.1525 20.5101C17.1358 21.964 17.1226 22.205 17.0509 22.3659C16.7802 22.974 16.1492 23.264 15.5513 23.0553ZM16.2396 22.3557C16.4633 22.1773 16.5082 21.9043 16.3546 21.6563C16.1264 21.2878 15.5028 21.42 15.42 21.8545C15.3867 22.0296 15.4871 22.2545 15.6482 22.3656C15.7894 22.463 16.1118 22.4576 16.2396 22.3557ZM14.9646 15.697C14.7676 15.5962 14.66 15.4955 14.4947 15.2571C14.2888 14.9601 14.2713 14.9469 14.0466 14.9203C13.4492 14.8496 13.1064 14.2761 13.3312 13.7231C13.3992 13.5558 13.3992 13.5193 13.3312 13.322C13.2289 13.0254 13.2372 12.8374 13.3635 12.5907L13.4707 12.3815L12.9797 11.6595C12.4222 10.8398 12.0331 10.0906 11.845 9.47454C11.7304 9.09932 11.7161 8.97722 11.7165 8.3727C11.7171 7.58089 11.8017 7.19387 12.1156 6.54746C12.3764 6.01038 12.6499 5.64649 13.1245 5.20492C15.2379 3.23856 18.7109 3.82989 20.0536 6.3847C20.4005 7.04478 20.5062 7.45474 20.5301 8.23204C20.549 8.84863 20.5396 8.95523 20.4288 9.37757C20.2624 10.0124 19.852 10.8259 19.2647 11.6854L18.7792 12.3958L18.879 12.5623C19.0016 12.7669 19.0134 13.1748 18.9027 13.3855C18.8333 13.5177 18.8332 13.5427 18.902 13.6738C18.991 13.8432 19.0023 14.1993 18.9251 14.3977C18.8122 14.6875 18.4493 14.9337 18.1315 14.9359C18.0044 14.9367 17.9586 14.9723 17.8296 15.17C17.652 15.4425 17.3999 15.6724 17.1789 15.7633C17.0646 15.8103 16.7778 15.8277 16.1211 15.8277C15.2279 15.8277 15.2178 15.8267 14.9646 15.697ZM17.0762 15.0424L17.1832 14.9369L16.1367 14.9383L15.0901 14.9397L15.2273 15.0585C15.3642 15.1769 15.3665 15.1772 16.1668 15.1625C16.9251 15.1486 16.975 15.1421 17.0762 15.0424ZM18.186 14.2336C18.2911 14.1943 18.3088 14.1622 18.2963 14.0343L18.2814 13.8819L16.1673 13.8697C14.6461 13.8609 14.035 13.8724 13.9882 13.9106C13.891 13.99 13.9096 14.1251 14.029 14.2075C14.1207 14.2707 14.3983 14.2805 16.0979 14.2805C17.2904 14.2805 18.11 14.2621 18.186 14.2336ZM18.213 13.1535C18.316 13.0993 18.3355 12.9225 18.248 12.8363C18.1658 12.7554 14.0626 12.7554 13.9803 12.8363C13.9012 12.9142 13.9089 13.0406 13.998 13.1284C14.0637 13.1931 14.3204 13.2021 16.0969 13.2021C17.401 13.2021 18.1537 13.1848 18.213 13.1535ZM18.6519 11.3852C19.2234 10.5445 19.5377 9.96917 19.721 9.42766C19.8349 9.09138 19.8482 8.9822 19.8493 8.3727C19.8506 7.72897 19.8426 7.67004 19.6996 7.26392C19.3311 6.21695 18.5634 5.39277 17.5765 4.98463C16.6487 4.6009 15.4648 4.6229 14.5577 5.04074C13.9899 5.30228 13.375 5.80516 13.0313 6.28892C12.837 6.56252 12.5851 7.10865 12.4974 7.44673C12.2494 8.40244 12.3516 9.16629 12.8623 10.1732C13.1049 10.6515 13.1749 10.7627 13.728 11.5493L14.132 12.1237H16.1409H18.1499L18.6519 11.3852ZM14.7545 11.0239L14.6376 10.9089V9.01413C14.6376 7.16827 14.6402 7.11621 14.7363 6.99585C14.8032 6.91221 14.8805 6.87231 14.9758 6.87231C15.0716 6.87231 15.6207 7.15847 16.6989 7.77038C17.5693 8.26432 18.3296 8.71108 18.3885 8.76318C18.5193 8.87878 18.5319 9.12399 18.4123 9.22721C18.2274 9.3869 15.0825 11.139 14.9809 11.139C14.9207 11.139 14.8188 11.0872 14.7545 11.0239ZM16.4014 9.6242C16.9566 9.3068 17.4114 9.02723 17.4121 9.00295C17.4132 8.96667 15.4347 7.81005 15.3716 7.81005C15.3609 7.81005 15.3521 8.34808 15.3521 9.00567C15.3521 9.66326 15.361 10.2013 15.372 10.2013C15.383 10.2013 15.8462 9.9416 16.4014 9.6242ZM1.01536 11.6765C0.726243 11.5881 0.467415 11.3673 0.311167 11.0757L0.181824 10.8343L0.168305 8.35501C0.153363 5.61692 0.158331 5.56087 0.445665 5.2195C0.527083 5.12277 0.693931 4.98563 0.816436 4.91473L1.03917 4.78584L3.63503 4.77241C5.97069 4.76032 6.2519 4.76686 6.44063 4.83765C6.7264 4.94484 7.00921 5.20722 7.14287 5.48915L7.254 5.72359L7.25343 8.25549C7.25287 10.6999 7.2495 10.7947 7.15602 10.9984C7.019 11.297 6.7544 11.5457 6.45728 11.6551C6.21521 11.7443 6.08867 11.7484 3.7166 11.7453C1.72858 11.7427 1.18669 11.7289 1.01536 11.6765ZM6.23136 11.0246C6.32164 10.9875 6.43875 10.8873 6.49162 10.8019C6.5847 10.6516 6.58775 10.5712 6.58792 8.26487C6.5881 5.63621 6.59448 5.69459 6.2881 5.51069C6.14221 5.42313 6.032 5.41916 3.74066 5.41899C1.13209 5.41881 1.10979 5.42089 0.935706 5.68244C0.8542 5.80489 0.848648 5.96884 0.848648 8.25342C0.848648 10.5252 0.854552 10.7022 0.934316 10.8178C1.12314 11.0915 1.10685 11.0899 3.69609 11.0911C5.65379 11.092 6.09585 11.0804 6.23136 11.0246ZM3.25398 10.0324C2.31546 9.78517 1.75599 8.94582 1.88293 7.97541C2.01016 7.00276 3.00237 6.27861 3.98765 6.43933C5.30824 6.65474 5.99135 8.07121 5.31917 9.20029C5.07673 9.60754 4.57845 9.94928 4.07326 10.0548C3.74977 10.1224 3.57787 10.1177 3.25398 10.0324ZM4.37135 9.22814C4.80337 8.92925 4.99764 8.41925 4.85845 7.94946C4.53921 6.87198 3.04904 6.79419 2.60853 7.83201C2.51197 8.05951 2.52249 8.49622 2.63002 8.72435C2.73145 8.93954 2.97114 9.19151 3.17137 9.29343C3.52545 9.47368 4.05837 9.44468 4.37135 9.22814ZM8.23777 8.65062C8.08564 8.53282 8.0661 8.28771 8.19938 8.16897C8.27447 8.10208 8.42123 8.09138 9.26368 8.09138C10.1499 8.09138 10.2482 8.09937 10.3197 8.17712C10.3631 8.22428 10.3982 8.3245 10.3978 8.39983C10.3962 8.71429 10.2847 8.74779 9.24114 8.74779C8.42515 8.74779 8.35443 8.74095 8.23777 8.65062ZM21.9467 8.63271C21.8051 8.49331 21.7963 8.31187 21.9251 8.18515C22.0141 8.0975 22.0833 8.09142 22.9848 8.09209C23.5153 8.09245 23.9729 8.10831 24.0018 8.12726C24.0733 8.17428 24.1637 8.35002 24.1637 8.44208C24.1637 8.48363 24.1111 8.56941 24.0468 8.63271C23.9306 8.74707 23.924 8.74779 22.9968 8.74779C22.0695 8.74779 22.0629 8.74709 21.9467 8.63271ZM11.0314 3.85803C10.3055 3.14341 10.2565 3.05899 10.4387 2.83741C10.4974 2.76612 10.5778 2.73063 10.6806 2.73063C10.8153 2.73063 10.9194 2.81397 11.5057 3.39116C12.0921 3.96835 12.1767 4.07083 12.1767 4.20336C12.1767 4.30462 12.1407 4.38377 12.0683 4.4415C11.8432 4.62092 11.7574 4.57266 11.0314 3.85803ZM20.1627 4.43419C20.1076 4.37989 20.0675 4.2779 20.0675 4.19192C20.0675 4.06428 20.1555 3.95593 20.6944 3.42024C21.0391 3.07749 21.3794 2.77709 21.4505 2.75269C21.7093 2.66387 21.9607 2.91301 21.8702 3.16863C21.845 3.23977 21.5384 3.57472 21.1889 3.91297C20.6495 4.43501 20.5311 4.52796 20.4057 4.52796C20.3215 4.52796 20.2171 4.48764 20.1627 4.43419ZM15.8977 2.67806C15.7815 2.5637 15.7808 2.55716 15.7808 1.64441C15.7808 0.731668 15.7815 0.725124 15.8977 0.610766C16.0393 0.471371 16.2236 0.462731 16.3523 0.589455C16.4414 0.677117 16.4476 0.745744 16.4476 1.64258C16.4476 2.56912 16.444 2.60522 16.3433 2.69754C16.204 2.82534 16.04 2.81817 15.8977 2.67806Z" fill="black" />
</svg>