<svg width="24" height="24" viewBox="0 0 24 24" fill="none" xmlns="http://www.w3.org/2000/svg">
  <path d="M7.74196 23.2258C7.74196 22.3195 8.26365 21.6774 9.00003 21.6774C9.424 21.6774 9.4839 21.5935 9.4839 21V20.3226H4.74195H0V12.871V5.41936H1.93549H3.87097V2.70967V0H12H20.1291V1.5871C20.1291 2.8215 20.1807 3.12259 20.3614 2.94194C20.9644 2.33893 21.0914 2.94212 20.5162 3.67742C20.308 3.94355 20.1358 4.44435 20.1334 4.79032L20.129 5.41936H22.0645H24V12.871V20.3226H19.2581H14.5161V21C14.5161 21.5935 14.576 21.6774 15 21.6774C15.7363 21.6774 16.258 22.3195 16.258 23.2258V24H12H7.74188L7.74196 23.2258ZM15.6775 23.0359C15.6775 22.2678 15.4833 22.2326 11.6129 22.2996L8.41938 22.3548L8.35874 22.9838L8.29809 23.6129H11.9878H15.6775L15.6775 23.0359ZM13.9355 21V20.3226H12H10.0645V21V21.6774H12H13.9355V21ZM23.4194 18.5806V17.4194H12H0.580645V18.5806V19.7419H12H23.4194V18.5806ZM11.5348 19.2956C10.809 18.7649 11.5805 17.4487 12.3388 17.924C12.8155 18.2229 12.8861 18.9879 12.4653 19.2956C12.2752 19.4346 12.0658 19.5484 12 19.5484C11.9343 19.5484 11.7249 19.4346 11.5348 19.2956ZM12.1936 18.6774C12.1936 18.5177 12.1065 18.3871 12 18.3871C11.8936 18.3871 11.8065 18.5177 11.8065 18.6774C11.8065 18.8371 11.8936 18.9677 12 18.9677C12.1065 18.9677 12.1936 18.8371 12.1936 18.6774ZM11.6129 16.678C11.6129 16.5897 11.4033 16.0018 11.147 15.3716L10.681 14.2258L7.27598 14.173L3.87097 14.1202V10.0601V6H2.22582H0.580645V11.4194V16.8387H6.09679C9.13068 16.8387 11.6129 16.7664 11.6129 16.678ZM13.9355 16.0372C13.9355 15.948 13.71 15.3118 13.4345 14.6234L12.9334 13.3717L12.128 13.6851C11.685 13.8574 11.2997 14.0144 11.2717 14.034C11.2437 14.0535 11.3526 14.3878 11.5136 14.7767C11.6747 15.1657 11.9308 15.7842 12.0827 16.1512L12.359 16.8186L13.1473 16.509C13.5808 16.3387 13.9355 16.1264 13.9355 16.0372ZM23.4194 13.5612V10.2838L22.9021 10.2225C22.1486 10.1333 22.0821 9.67743 22.8227 9.67743C23.3567 9.67743 23.4194 9.61643 23.4194 9.09679C23.4194 8.60647 23.3442 8.51615 22.9356 8.51615C22.6345 8.51615 22.4517 8.40646 22.4517 8.22582C22.4517 8.04517 22.6345 7.93549 22.9356 7.93549C23.3896 7.93549 23.4194 7.87346 23.4194 6.93076C23.4194 6.08283 23.3817 5.9767 23.1775 6.25074C22.8814 6.64809 21.6775 6.92731 21.6775 6.59862C21.6775 6.47543 21.8735 6.29587 22.113 6.1996C22.4514 6.06356 22.3024 6.02181 21.4441 6.01228L20.3398 5.99999L20.6001 6.7258C20.7432 7.125 21.1356 8.13969 21.472 8.98068C21.8084 9.82168 22.0386 10.6273 21.9834 10.771C21.8646 11.0806 21.0323 11.1149 20.5035 10.8319C20.1462 10.6407 20.1291 10.7113 20.1291 12.3803C20.1291 14.1166 20.1254 14.129 19.6452 14.129C19.2222 14.129 19.1614 14.2133 19.1614 14.7996C19.1614 15.2645 19.0465 15.5317 18.787 15.6706C18.2551 15.9552 17.4659 15.9186 17.2839 15.6008C17.1531 15.3724 16.9614 15.3827 16.0465 15.6672C15.4511 15.8524 14.7761 16.1917 14.5465 16.4213L14.1291 16.8387H18.7743H23.4194V13.5612ZM16.9839 14.7825C17.8622 14.5167 18.5807 14.2173 18.5807 14.1173C18.5807 14.0173 18.4936 13.9355 18.3872 13.9355C18.1094 13.9355 18.148 13.4084 18.4355 13.2742C18.6291 13.1839 18.6291 13.1387 18.4355 13.0484C18.3024 12.9863 18.1936 12.8194 18.1936 12.6774C18.1936 12.5355 18.3024 12.3752 18.4355 12.3212C18.6178 12.2472 18.6059 12.1708 18.3872 12.0111C18.1322 11.8249 18.1378 11.7677 18.4325 11.5417C19.0833 11.0427 18.5328 11.073 16.8958 11.6263C15.2104 12.196 14.8344 12.2111 15.03 11.7013C15.2199 11.2064 14.5783 11.5916 14.0424 12.2942C13.7707 12.6505 13.5484 13.0041 13.5484 13.0801C13.5484 13.1561 13.7364 13.734 13.9663 14.3644C14.4427 15.6711 14.1723 15.6336 16.9839 14.7825ZM18.5807 15.0968C18.5807 14.8543 18.3753 14.8543 18.0001 15.0968C17.7653 15.2485 17.7931 15.285 18.1452 15.2874C18.3847 15.2888 18.5807 15.2032 18.5807 15.0968ZM11.9356 13.15C12.751 12.8027 14.2907 11.4007 14.3144 10.9839C14.3188 10.904 14.1181 10.8387 13.8681 10.8387C13.5174 10.8387 13.344 10.6615 13.109 10.0633C12.8457 9.39286 12.8417 9.25054 13.0797 9.01257C13.2311 8.86119 13.3549 8.61113 13.3549 8.45688C13.3549 8.07992 13.64 7.88402 14.9357 7.37049C15.8087 7.02452 16.2131 6.70599 16.9168 5.81033C17.4031 5.19133 17.8881 4.45586 17.9945 4.17595C18.1009 3.89605 18.3852 3.58779 18.6263 3.49095C18.9018 3.38027 16.3507 3.31031 11.7581 3.3026L4.45165 3.29031V8.41934V13.5484H7.72595C10.5991 13.5484 11.1148 13.4996 11.9356 13.15ZM5.61292 10.8387C5.27371 10.4995 5.22582 10.1936 5.22582 8.36565C5.22582 5.3124 5.09302 5.41936 8.88424 5.41936C12.7376 5.41936 12.5807 5.29752 12.5807 8.28943C12.5807 11.2984 12.6716 11.2258 8.90326 11.2258C6.25809 11.2258 5.96561 11.1914 5.61292 10.8387ZM11.9033 8.32259V6.09678H8.90326H5.90324L5.84787 8.10078C5.81107 9.43207 5.86915 10.1972 6.02089 10.38C6.2032 10.5997 6.81978 10.6444 9.07628 10.6018L11.9033 10.5484L11.9033 8.32259ZM7.67715 9.74164C7.60634 9.67083 7.54841 8.9742 7.54841 8.19355C7.54841 7.18308 7.61813 6.77637 7.79035 6.78173C8.20882 6.79475 10.1613 8.04792 10.1613 8.30347C10.1613 8.59528 7.86196 9.92645 7.67715 9.74164ZM8.79737 8.67861C9.42866 8.39098 9.41747 8.28758 8.70971 7.8695L8.12906 7.5265V8.21487C8.12906 8.99028 8.12247 8.98596 8.79737 8.67861ZM19.5485 12.0968C19.5485 11.2984 19.4828 10.6452 19.4026 10.6452C19.3224 10.6452 19.2317 11.2984 19.2011 12.0968C19.166 13.0097 19.2202 13.5484 19.3469 13.5484C19.4687 13.5484 19.5485 12.974 19.5485 12.0968ZM16.1455 11.3019C16.5731 11.1378 16.5282 10.8387 16.076 10.8387C15.672 10.8387 15.4165 11.0938 15.6183 11.2956C15.7696 11.4469 15.7677 11.4466 16.1455 11.3019ZM17.8929 10.6641C18.248 10.5251 18.2442 10.51 17.8258 10.4006C17.3041 10.2642 16.795 10.4178 16.9481 10.6654C17.0738 10.8689 17.3706 10.8686 17.8929 10.6641ZM16.1929 10.1357C16.5481 9.98722 16.8388 9.83114 16.8388 9.78882C16.8388 9.74647 16.6545 9.23032 16.4293 8.64178L16.0198 7.5717L15.026 7.96334C14.4795 8.17875 13.9991 8.38811 13.9586 8.4286C13.9181 8.46913 14.0816 8.98674 14.3219 9.57893C14.7963 10.7477 14.7564 10.7358 16.1929 10.1357ZM20.2179 7.33465C18.9522 4.11662 18.8559 3.9184 18.6553 4.11897C18.4747 4.29956 20.9674 10.4478 21.222 10.4498C21.3468 10.4506 20.9076 9.08801 20.2179 7.33465ZM13.7656 9.74032C13.5374 9.34796 13.4823 9.47354 13.6691 9.96026C13.7355 10.1332 13.8306 10.234 13.8804 10.1842C13.9302 10.1343 13.8789 9.9346 13.7656 9.74032ZM20.1291 9.92245C20.1291 9.64785 18.318 5.22581 18.2055 5.22581C18.1429 5.22581 17.7308 5.68795 17.2897 6.25279L16.4876 7.27978L17.007 8.52699C17.5016 9.71441 17.5634 9.77984 18.2956 9.89189C19.4558 10.0695 20.1291 10.0807 20.1291 9.92245ZM19.5485 3.58064C19.5485 3.42096 19.4641 3.29033 19.361 3.29033C19.2579 3.29033 19.2236 3.42096 19.2849 3.58064C19.3462 3.74032 19.4306 3.87097 19.4724 3.87097C19.5142 3.87097 19.5485 3.74032 19.5485 3.58064ZM19.5098 1.59678L19.4517 0.483867H12H4.5484L4.49032 1.59678L4.43231 2.70967H12H19.5678L19.5098 1.59678ZM5.61294 1.54842C5.61294 1.44197 5.74359 1.35488 5.90327 1.35488C6.06295 1.35488 6.19359 1.44197 6.19359 1.54842C6.19359 1.65487 6.06295 1.74197 5.90327 1.74197C5.74359 1.74197 5.61294 1.65487 5.61294 1.54842ZM7.54844 1.54842C7.54844 1.44197 7.67909 1.35488 7.83876 1.35488C7.99844 1.35488 8.12909 1.44197 8.12909 1.54842C8.12909 1.65487 7.99844 1.74197 7.83876 1.74197C7.67909 1.74197 7.54844 1.65487 7.54844 1.54842ZM9.48393 1.54842C9.48393 1.44197 9.61457 1.35488 9.77426 1.35488C9.93393 1.35488 10.0646 1.44197 10.0646 1.54842C10.0646 1.65487 9.93393 1.74197 9.77426 1.74197C9.61457 1.74197 9.48393 1.65487 9.48393 1.54842ZM21.0969 4.84972C21.0969 4.58669 21.9019 4.06075 22.1088 4.18861C22.3316 4.32634 21.7028 5.03229 21.3572 5.03229C21.214 5.03229 21.0969 4.95014 21.0969 4.84972Z" fill="black" />
</svg>