<svg width="24" height="24" viewBox="0 0 24 24" fill="none" xmlns="http://www.w3.org/2000/svg">
  <path d="M3.19651 23.8494C3.12164 23.7747 3.07774 23.6757 3.07774 23.5816C3.07774 23.4875 3.12164 23.3886 3.19651 23.3138L3.31528 23.1953H5.32554H7.3358V22.7419C7.3358 22.0633 7.33138 22.0667 8.25873 22.0364L8.99695 22.0122L9.25108 21.2527L9.50521 20.4932L5.33583 20.4801L1.16645 20.4669L0.896134 20.3404C0.566918 20.1864 0.315111 19.9431 0.138218 19.6082L0.00515747 19.3563V13.1511V6.94583L0.138218 6.69392C0.307205 6.37399 0.545077 6.1366 0.865646 5.96795L1.11806 5.83516L2.67854 5.82007L4.23903 5.80497V4.38126V2.95754L4.3578 2.83902C4.4756 2.72145 4.48406 2.72049 5.40032 2.72049C6.31658 2.72049 6.32504 2.7214 6.44284 2.83902L6.56161 2.95754V4.38429V5.81103H6.75516H6.94871V3.03215V0.253295L7.06747 0.134764C7.18528 0.0171971 7.19374 0.0162354 8.11 0.0162354C9.02625 0.0162354 9.03471 0.0171478 9.15252 0.134764L9.27129 0.253295V3.03215V5.811H9.46483H9.65838V3.80478V1.79857L9.77715 1.68004C9.89496 1.56247 9.90341 1.56151 10.8197 1.56151C11.7359 1.56151 11.7444 1.56242 11.8622 1.68004L11.981 1.79857V3.80478V5.811H14.3544H16.7278L16.5023 5.49559C15.4955 4.08754 15.6914 2.15466 16.961 0.971252C17.3652 0.594424 17.7131 0.385977 18.2586 0.193757C18.6537 0.0545623 18.7271 0.0444902 19.3358 0.0459685C19.9034 0.0474286 20.0377 0.0636542 20.36 0.170358C21.6114 0.584625 22.5092 1.59236 22.7512 2.85444C22.9258 3.76524 22.7134 4.73473 22.174 5.48912L21.9531 5.79807L22.3985 5.82151C22.7537 5.84021 22.895 5.87084 23.0963 5.97284C23.4286 6.1412 23.6742 6.39281 23.83 6.72433L23.9568 6.9941V13.151V19.308L23.83 19.5778C23.6689 19.9207 23.4094 20.1796 23.0658 20.3404L22.7955 20.4669L18.6261 20.48L14.4567 20.4931L14.7108 21.2527L14.965 22.0122L15.7032 22.0363C16.6306 22.0667 16.6261 22.0633 16.6261 22.7419V23.1953H18.6364H20.6467L20.7654 23.3138C20.9226 23.4706 20.9226 23.6926 20.7654 23.8494L20.6467 23.9679H11.981H3.31528L3.19651 23.8494ZM15.8519 23.0022V22.809H11.981H8.11V23.0022V23.1953H11.981H15.8519V23.0022ZM13.8965 21.2758L13.6419 20.5152H11.981H10.3201L10.0655 21.2758L9.81086 22.0364H11.981H14.1511L13.8965 21.2758ZM22.8494 19.5947C23.1392 19.3788 23.1813 19.2713 23.199 18.701L23.2153 18.1732H11.9852H0.755157V18.6288C0.755157 19.1182 0.797903 19.2906 0.964026 19.4711C1.20194 19.7296 0.5462 19.7158 12.0379 19.7047L22.7158 19.6943L22.8494 19.5947ZM1.64812 19.2136C1.57325 19.1389 1.52935 19.0399 1.52935 18.9458C1.52935 18.8517 1.57325 18.7527 1.64812 18.678L1.76689 18.5595H3.07774H4.38859L4.50736 18.678C4.66449 18.8348 4.66449 19.0568 4.50736 19.2136L4.38859 19.3321H3.07774H1.76689L1.64812 19.2136ZM5.13199 19.2136C5.05712 19.1389 5.01322 19.0399 5.01322 18.9458C5.01322 18.8517 5.05712 18.7527 5.13199 18.678C5.23576 18.5745 5.2941 18.5595 5.59387 18.5595C5.89364 18.5595 5.95198 18.5745 6.05574 18.678C6.13061 18.7527 6.17451 18.8517 6.17451 18.9458C6.17451 19.0399 6.13061 19.1389 6.05574 19.2136C5.95198 19.3172 5.89364 19.3321 5.59387 19.3321C5.2941 19.3321 5.23576 19.3172 5.13199 19.2136ZM23.1953 12.2371C23.1827 7.10722 23.1819 7.07273 23.0828 6.94026C22.8452 6.62264 22.7972 6.60919 21.8435 6.59261C20.994 6.57782 20.9623 6.58084 20.6493 6.70589C19.7951 7.04716 18.8602 7.04508 18.0093 6.7L17.7223 6.58365H14.8517H11.981V8.12892V9.67419H12.1745H12.3681V8.44061V7.20703L12.4868 7.0885C12.6046 6.97093 12.6131 6.96997 13.5294 6.96997C14.4456 6.96997 14.4541 6.97088 14.5719 7.0885L14.6906 7.20703V8.7084V10.2098L14.5719 10.3283L14.4531 10.4468H8.11H1.76689L1.64812 10.3283L1.52935 10.2098V8.7084V7.20703L1.64812 7.0885C1.76592 6.97093 1.77438 6.96997 2.69064 6.96997C3.6069 6.96997 3.61536 6.97088 3.73316 7.0885L3.85193 7.20703V8.44061V9.67419H4.04548H4.23903V8.12694V6.5797L2.74248 6.59375C1.31817 6.60713 1.2395 6.6126 1.11241 6.70736C1.03897 6.76212 0.933985 6.86693 0.879115 6.94027C0.780002 7.07274 0.779268 7.10724 0.766609 12.2371L0.753862 17.4006H11.981H23.2081L23.1953 12.2371ZM8.53523 16.9566C8.29656 16.8932 7.95184 16.5839 7.82873 16.3225L7.72943 16.1116L5.73548 15.2825L3.74153 14.4534L3.57379 14.6489C3.10936 15.1904 2.38857 15.2222 1.89062 14.7231C1.40113 14.2326 1.40113 13.6138 1.89062 13.1253C2.23041 12.7861 2.59649 12.6893 3.0387 12.8215C3.29067 12.8969 3.62302 13.1952 3.7461 13.4565L3.8454 13.6673L5.83178 14.4933L7.81817 15.3193L8.07295 15.0665C8.55086 14.5924 9.15655 14.5703 9.64789 15.0089L9.87612 15.2127L11.9078 13.6869C13.7084 12.3346 13.9448 12.1419 13.9863 11.9921C14.0132 11.8949 14.1368 11.7198 14.2772 11.58C14.6199 11.2387 14.9815 11.1444 15.435 11.2782C15.6857 11.3521 16.1171 11.768 16.164 11.9808C16.1948 12.1209 16.3495 12.2209 18.2294 13.3158L20.2614 14.4994L20.411 14.3294C20.6431 14.0655 20.9029 13.9514 21.2713 13.9514C22.4867 13.9514 22.8602 15.5394 21.7794 16.1114C21.5105 16.2537 21.0312 16.253 20.7586 16.1098C20.5166 15.9827 20.2851 15.7275 20.2007 15.4945C20.1418 15.3319 20.0048 15.2431 18.1126 14.1411L16.0876 12.9616L15.9381 13.1316C15.706 13.3953 15.4461 13.5096 15.0777 13.5097C14.7253 13.5099 14.5271 13.4293 14.2552 13.1753L14.0858 13.0171L12.0541 14.5448C10.2542 15.8982 10.0171 16.0918 9.97564 16.2415C9.94873 16.3387 9.8251 16.5138 9.68474 16.6536C9.34631 16.9906 9.00388 17.0809 8.53523 16.9566ZM9.15252 16.1231C9.39253 15.8835 9.22246 15.469 8.88419 15.469C8.68526 15.469 8.49709 15.6567 8.49709 15.8553C8.49709 16.0538 8.68526 16.2416 8.88419 16.2416C8.97847 16.2416 9.07765 16.1978 9.15252 16.1231ZM21.5396 15.3504C21.6145 15.2757 21.6584 15.1767 21.6584 15.0826C21.6584 14.9885 21.6145 14.8896 21.5396 14.8148C21.4648 14.7401 21.3656 14.6963 21.2713 14.6963C21.177 14.6963 21.0778 14.7401 21.003 14.8148C20.9281 14.8896 20.8842 14.9885 20.8842 15.0826C20.8842 15.1767 20.9281 15.2757 21.003 15.3504C21.0778 15.4251 21.177 15.469 21.2713 15.469C21.3656 15.469 21.4648 15.4251 21.5396 15.3504ZM2.95897 14.1915C3.19898 13.9519 3.02891 13.5374 2.69064 13.5374C2.49172 13.5374 2.30354 13.7252 2.30354 13.9237C2.30354 14.1222 2.49172 14.31 2.69064 14.31C2.78492 14.31 2.8841 14.2662 2.95897 14.1915ZM15.3461 12.6462C15.4209 12.5715 15.4648 12.4725 15.4648 12.3784C15.4648 12.2843 15.4209 12.1853 15.3461 12.1106C15.2712 12.0359 15.172 11.9921 15.0777 11.9921C14.9835 11.9921 14.8843 12.0359 14.8094 12.1106C14.7345 12.1853 14.6906 12.2843 14.6906 12.3784C14.6906 12.4725 14.7345 12.5715 14.8094 12.6462C14.8843 12.7209 14.9835 12.7647 15.0777 12.7647C15.172 12.7647 15.2712 12.7209 15.3461 12.6462ZM15.1965 16.8957C15.1216 16.821 15.0777 16.722 15.0777 16.6279C15.0777 16.5338 15.1216 16.4348 15.1965 16.3601L15.3153 16.2416H16.8197H18.3241L18.4428 16.3601C18.5177 16.4348 18.5616 16.5338 18.5616 16.6279C18.5616 16.722 18.5177 16.821 18.4428 16.8957L18.3241 17.0142H16.8197H15.3153L15.1965 16.8957ZM16.7449 15.7367C16.67 15.662 16.6261 15.563 16.6261 15.469C16.6261 15.3749 16.67 15.2759 16.7449 15.2012C16.8605 15.0858 16.8831 15.0826 17.5939 15.0826C18.3046 15.0826 18.3272 15.0858 18.4428 15.2012C18.5177 15.2759 18.5616 15.3749 18.5616 15.469C18.5616 15.563 18.5177 15.662 18.4428 15.7367C18.3272 15.8521 18.3046 15.8553 17.5939 15.8553C16.8831 15.8553 16.8605 15.8521 16.7449 15.7367ZM1.64812 11.4872C1.57325 11.4125 1.52935 11.3135 1.52935 11.2195C1.52935 11.1254 1.57325 11.0264 1.64812 10.9517L1.76689 10.8331H4.04548H6.32407L6.44284 10.9517C6.59997 11.1085 6.59997 11.3304 6.44284 11.4872L6.32407 11.6058H4.04548H1.76689L1.64812 11.4872ZM7.06747 11.4872C6.99261 11.4125 6.94871 11.3135 6.94871 11.2195C6.94871 11.1254 6.99261 11.0264 7.06747 10.9517C7.17124 10.8481 7.22958 10.8331 7.52935 10.8331C7.82912 10.8331 7.88746 10.8481 7.99123 10.9517C8.06609 11.0264 8.11 11.1254 8.11 11.2195C8.11 11.3135 8.06609 11.4125 7.99123 11.4872C7.88746 11.5908 7.82912 11.6058 7.52935 11.6058C7.22958 11.6058 7.17124 11.5908 7.06747 11.4872ZM15.9707 9.55565C15.8931 9.4782 15.8519 9.38247 15.8519 9.27944C15.8519 9.13932 15.9505 9.02337 16.7364 8.23901L17.621 7.35627H19.5209H21.4208L21.5396 7.47481C21.6145 7.54952 21.6584 7.64851 21.6584 7.74259C21.6584 7.83668 21.6145 7.93567 21.5396 8.01038L21.4208 8.12891H19.6907H17.9605L17.1811 8.90155C16.4975 9.57923 16.3826 9.67418 16.2456 9.67418C16.1443 9.67418 16.0477 9.63252 15.9707 9.55565ZM3.07774 8.70839V7.74259H2.69064H2.30354V8.70839V9.67418H2.69064H3.07774V8.70839ZM5.78742 6.58364V3.4931H5.40032H5.01322V6.58364V9.67418H5.40032H5.78742V6.58364ZM6.94871 8.12891V6.58364H6.75516H6.56161V8.12891V9.67418H6.75516H6.94871V8.12891ZM8.49709 5.23153V0.788871H8.11H7.7229V5.23153V9.67418H8.11H8.49709V5.23153ZM9.65838 8.12891V6.58364H9.46483H9.27129V8.12891V9.67418H9.46483H9.65838V8.12891ZM11.2068 6.00416V2.33414H10.8197H10.4326V6.00416V9.67418H10.8197H11.2068V6.00416ZM13.9164 8.70839V7.74259H13.5294H13.1423V8.70839V9.67418H13.5294H13.9164V8.70839ZM19.9598 6.12308C20.7211 5.94401 21.4051 5.39633 21.7526 4.68759C21.8599 4.46885 21.9616 4.19752 21.9786 4.08465L22.0095 3.87941H20.7568H19.5042L18.6095 4.77402C17.8791 5.50436 17.7282 5.67791 17.7874 5.71919C17.9559 5.83657 18.5024 6.07504 18.7286 6.12989C19.0685 6.21228 19.593 6.20938 19.9598 6.12308ZM18.0652 4.20586L18.9487 3.32506V2.07494V0.824817L18.7431 0.857275C18.63 0.875125 18.3589 0.975762 18.1408 1.08091C17.0201 1.62102 16.4133 2.89977 16.7005 4.11588C16.7688 4.40496 17.0857 5.08666 17.1518 5.08666C17.1682 5.08666 17.5792 4.6903 18.0652 4.20586ZM21.9769 2.90155C21.9165 2.52007 21.5889 1.93212 21.2463 1.59018C20.9011 1.24576 20.3016 0.911563 19.9285 0.855643L19.7229 0.824817V1.9658V3.10678H20.8662H22.0095L21.9769 2.90155Z" fill="black" />
</svg>